<svg xmlns="http://www.w3.org/2000/svg" xmlns:xlink="http://www.w3.org/1999/xlink" width="500" zoomAndPan="magnify" viewBox="0 0 375 374.999991" height="500" preserveAspectRatio="xMidYMid meet" version="1.0"><defs><g/><clipPath id="0ed346abdc"><path d="M 52.746094 196.035156 L 375 196.035156 L 375 253.785156 L 52.746094 253.785156 Z M 52.746094 196.035156 " clip-rule="nonzero"/></clipPath></defs><rect x="-37.5" width="450" fill="#ffffff" y="-37.499999" height="449.999989" fill-opacity="1"/><rect x="-37.5" width="450" fill="#ffffff" y="-37.499999" height="449.999989" fill-opacity="1"/><rect x="-37.5" width="450" fill="#ffffff" y="-37.499999" height="449.999989" fill-opacity="1"/><g clip-path="url(#0ed346abdc)"><path fill="#000000" d="M 138.859375 196.09375 C 139.011719 196.074219 139.164062 196.054688 139.320312 196.035156 C 139.324219 197.804688 139.335938 199.574219 139.324219 201.339844 C 139.277344 201.96875 139.496094 202.574219 139.5 203.191406 C 139.316406 204.050781 139.296875 204.929688 139.375 205.804688 C 140.074219 205.832031 140.746094 206.007812 141.425781 206.164062 C 141.472656 206.519531 141.507812 206.871094 141.546875 207.226562 C 141.863281 207.378906 142.179688 207.523438 142.496094 207.679688 C 142.640625 210.351562 142.097656 237.011719 142.925781 239.558594 C 143.378906 240.808594 143.09375 242.160156 143.144531 243.453125 C 143.34375 243.453125 143.542969 243.453125 143.742188 243.449219 C 143.835938 241.949219 144.207031 243.507812 144.175781 237.546875 C 144.59375 237.507812 145.015625 237.46875 145.433594 237.429688 C 145.46875 237.144531 145.503906 236.863281 145.546875 236.585938 C 145.964844 236.589844 146.386719 236.59375 146.804688 236.589844 C 146.921875 237.117188 147.292969 237.484375 147.820312 237.597656 C 147.867188 238.898438 147.789062 240.199219 147.871094 241.503906 C 147.976562 241.5 148.191406 241.496094 148.296875 241.496094 C 148.292969 237.988281 148.296875 234.484375 148.328125 230.976562 C 150.046875 230.902344 151.769531 230.914062 153.488281 231 C 153.550781 234 153.195312 233.894531 154.261719 234.53125 C 154.503906 215.964844 153.644531 220.085938 155.519531 218.519531 C 155.644531 217.148438 155.425781 215.761719 155.589844 214.390625 C 155.832031 213.832031 156.207031 213.328125 156.429688 212.753906 C 156.597656 213.070312 156.761719 213.386719 156.929688 213.703125 C 157.863281 213.671875 158.800781 213.691406 159.734375 213.710938 C 159.757812 213.972656 159.777344 214.238281 159.800781 214.503906 C 159.9375 214.503906 160.074219 214.5 160.210938 214.5 C 160.257812 214.222656 160.304688 213.941406 160.355469 213.664062 C 160.582031 213.660156 160.808594 213.660156 161.035156 213.65625 C 161.136719 215.398438 160.976562 223.714844 161.066406 227.164062 C 161.480469 227.175781 161.894531 227.171875 162.308594 227.164062 C 162.328125 230.003906 162.234375 232.847656 162.347656 235.683594 C 162.84375 235.691406 163.339844 235.683594 163.835938 235.675781 C 163.859375 236.1875 163.875 236.699219 163.894531 237.210938 C 164.324219 237.226562 164.753906 237.234375 165.1875 237.238281 C 164.636719 235.5 165.160156 237.058594 164.890625 228.660156 C 165.113281 225.03125 164.746094 221.386719 164.976562 217.761719 C 167.34375 217.722656 169.710938 217.753906 172.078125 217.730469 C 172.253906 219.929688 172.007812 222.132812 172.09375 224.332031 C 172.757812 224.410156 173.382812 224.179688 174.023438 224.042969 C 176.847656 224.683594 176.175781 224.265625 176.191406 227.425781 C 177.328125 227.390625 178.46875 227.398438 179.605469 227.476562 C 179.613281 227.710938 179.628906 227.945312 179.640625 228.179688 C 181.097656 229.148438 180.328125 228.890625 181.847656 229.03125 C 181.867188 235.371094 181.664062 235.554688 182.214844 235.640625 C 182.332031 232.515625 182.183594 229.386719 182.257812 226.261719 C 183.378906 226.121094 184.386719 225.5 185.507812 225.402344 C 186.785156 225.664062 188.089844 225.582031 189.386719 225.597656 C 189.441406 228.214844 189.351562 230.828125 189.4375 233.441406 C 190.324219 233.292969 189.480469 221.960938 189.847656 218.734375 C 189.972656 218.707031 193.171875 217.945312 193.550781 217.691406 C 193.722656 217.382812 193.839844 217.050781 193.984375 216.730469 C 194.152344 216.96875 194.324219 217.207031 194.5 217.445312 C 196.445312 217.273438 198.386719 217.417969 200.332031 217.4375 C 200.445312 221.722656 200.285156 226.015625 200.371094 230.300781 C 200.878906 230.320312 201.390625 230.332031 201.898438 230.359375 C 201.929688 230.65625 201.960938 230.960938 201.992188 231.261719 C 203.171875 231.289062 204.351562 231.296875 205.535156 231.261719 C 205.53125 230.203125 205.464844 229.144531 205.542969 228.089844 C 206.300781 228.101562 207.0625 228.117188 207.824219 228.066406 C 207.839844 227.253906 207.757812 226.429688 207.964844 225.632812 C 208.203125 224.726562 208.164062 223.761719 208.472656 222.867188 C 208.808594 222.242188 208.804688 222.882812 210.117188 219.617188 C 210.4375 218.871094 210.285156 218.035156 210.460938 217.257812 C 210.5625 216.8125 210.644531 216.367188 210.707031 215.917969 C 210.953125 216.242188 211.101562 216.625 211.066406 217.039062 C 210.9375 219.507812 212.363281 221.457031 212.925781 222.628906 C 213.5 224.53125 213.40625 224.027344 213.390625 234.339844 C 213.707031 234.34375 214.027344 234.34375 214.351562 234.34375 C 214.394531 231.242188 214.390625 228.140625 214.390625 225.035156 C 214.367188 224.398438 214.675781 223.8125 214.691406 223.175781 C 214.714844 222.5625 214.664062 221.933594 214.847656 221.335938 C 215.132812 220.453125 214.996094 219.515625 215.0625 218.605469 C 215.050781 218.222656 215.40625 217.984375 215.589844 217.683594 C 216.027344 217.109375 215.855469 216.289062 216.324219 215.738281 C 216.933594 215.019531 216.84375 214.003906 217.082031 213.140625 C 217.410156 212.082031 217.222656 210.964844 217.25 209.875 C 217.28125 209.878906 217.34375 209.878906 217.378906 209.882812 C 217.257812 215.363281 217.753906 213.828125 216.777344 215.421875 C 217.265625 215.515625 217.753906 215.582031 218.25 215.628906 C 218.386719 216.1875 218.519531 216.746094 218.667969 217.300781 C 218.800781 217.773438 219.335938 218.074219 219.292969 218.601562 C 219.296875 219.136719 219.347656 219.667969 219.519531 220.175781 C 220.949219 219.851562 222.4375 219.90625 223.886719 220.015625 C 224.730469 221.324219 225.902344 222.390625 227.125 223.34375 C 227.132812 223.410156 227.140625 234.269531 227.140625 234.335938 C 227.753906 234.351562 228.398438 234.234375 228.992188 234.457031 C 229.886719 234.800781 230.859375 234.5625 231.792969 234.652344 C 232.027344 234.34375 232.269531 234.046875 232.53125 233.757812 C 232.9375 234.074219 233.371094 234.398438 233.917969 234.359375 C 233.96875 223.734375 233.347656 221.953125 236.144531 221.40625 C 236.144531 221.046875 236.140625 220.6875 236.140625 220.328125 C 236.414062 220.152344 236.683594 219.972656 236.984375 219.847656 C 237.394531 220.222656 237.09375 220.859375 237.289062 221.332031 C 237.410156 221.597656 237.570312 221.84375 237.695312 222.113281 C 237.894531 222.503906 237.921875 223.066406 238.460938 223.121094 C 238.632812 222.898438 238.699219 222.484375 239.050781 222.496094 C 241.535156 222.339844 239.980469 222.6875 242.867188 223.121094 C 242.871094 223.925781 242.867188 224.734375 242.871094 225.542969 C 243.507812 225.59375 244.144531 225.609375 244.785156 225.617188 C 244.847656 227.878906 244.769531 230.144531 244.816406 232.410156 C 245.125 232.535156 245.4375 232.664062 245.75 232.792969 C 245.824219 233.855469 245.792969 234.921875 245.832031 235.988281 C 246.011719 235.988281 246.1875 235.984375 246.371094 235.984375 C 247.167969 232.535156 247.136719 233.101562 250.847656 233.140625 C 251.066406 233.164062 251.367188 233.125 251.464844 233.378906 C 252.023438 234.746094 252.699219 236.109375 252.726562 237.621094 C 252.710938 238.160156 253.347656 238.460938 253.300781 239.015625 C 253.308594 242.378906 253.238281 245.746094 253.332031 249.109375 C 253.867188 249.125 254.398438 249.125 254.933594 249.109375 C 254.964844 247.644531 254.890625 246.175781 254.972656 244.707031 C 255.578125 244.679688 256.191406 244.671875 256.800781 244.664062 C 256.820312 244.164062 256.847656 243.667969 256.882812 243.167969 C 257.578125 243.171875 258.269531 243.171875 258.964844 243.179688 C 259.03125 250.816406 258.761719 250.960938 259.363281 251.023438 C 259.484375 248.671875 259.386719 232.960938 259.386719 232.945312 C 259.785156 232.242188 260.691406 232.539062 261.339844 232.375 C 262.902344 231.867188 264.46875 232.164062 264.941406 232.484375 C 265.308594 232.683594 265.511719 233.058594 265.71875 233.40625 C 267.324219 233.304688 268.929688 233.484375 270.535156 233.449219 C 270.769531 234.273438 270.664062 238.628906 270.660156 238.753906 C 271.695312 238.703125 272.730469 238.753906 273.769531 238.714844 C 273.847656 238.203125 273.9375 237.695312 274.0625 237.191406 C 274.585938 237.820312 274.484375 238.761719 275.082031 239.339844 C 275.886719 240.398438 275.589844 238.699219 275.683594 248.492188 C 276.582031 248.589844 277.378906 248.066406 278.273438 248.082031 C 278.351562 245.644531 278.148438 236.636719 278.261719 232.765625 C 279.179688 232.710938 280.101562 232.757812 281.019531 232.867188 C 281.324219 232.484375 281.625 232.089844 281.902344 231.683594 C 282.46875 232.0625 283.132812 232.222656 283.816406 232.203125 C 283.859375 232.410156 283.910156 232.613281 283.960938 232.820312 C 284.65625 232.828125 285.351562 232.863281 286.046875 232.929688 C 286.128906 233.8125 286.117188 234.695312 286.085938 235.582031 C 287.199219 235.585938 288.160156 236.253906 289.269531 236.328125 C 289.480469 236.625 289.761719 236.855469 290.09375 237.015625 C 290.257812 238.136719 290.167969 239.265625 290.171875 240.394531 C 291.542969 240.332031 292.914062 240.226562 294.285156 240.3125 C 294.363281 238.164062 294.234375 228.3125 294.324219 223.347656 C 295.25 223.308594 296.179688 223.320312 297.109375 223.316406 C 297.101562 222.378906 297.21875 221.449219 297.195312 220.515625 C 298.207031 220.476562 299.21875 220.507812 300.234375 220.496094 C 300.613281 219.207031 300.199219 219.429688 301.789062 219.238281 C 301.8125 216.707031 301.695312 214.160156 301.964844 211.640625 C 302.3125 212.371094 302.214844 216.703125 302.234375 219.183594 C 302.792969 219.257812 303.253906 219.574219 303.648438 219.957031 C 304.007812 220.3125 304.617188 220.363281 304.925781 220.730469 C 305.0625 221.753906 304.964844 235.539062 304.988281 250.4375 C 305.621094 250.453125 306.257812 250.453125 306.894531 250.4375 C 306.917969 248.867188 306.824219 238.171875 306.972656 236.613281 C 307.503906 236.59375 308.035156 236.5625 308.566406 236.519531 C 308.597656 235.59375 308.414062 234.625 308.804688 233.753906 C 309.710938 233.742188 310.617188 233.738281 311.523438 233.777344 C 311.628906 234.664062 311.609375 235.558594 311.566406 236.449219 C 312.730469 237.210938 312.433594 235.957031 312.453125 241.878906 C 313.414062 241.855469 314.375 241.824219 315.335938 241.902344 C 315.453125 243.019531 315.34375 244.144531 315.375 245.261719 C 315.882812 245.429688 316.417969 245.503906 316.929688 245.652344 C 316.929688 246.375 316.882812 247.09375 316.929688 247.816406 C 317.578125 247.832031 318.230469 247.832031 318.878906 247.839844 C 318.863281 246.832031 318.777344 236.363281 318.949219 235.347656 C 319.953125 235.378906 320.972656 235.289062 321.972656 235.425781 C 322.789062 235.648438 323.597656 235.929688 324.453125 235.953125 C 324.464844 236.253906 324.476562 236.554688 324.5 236.855469 C 324.953125 236.84375 325.414062 236.828125 325.871094 236.816406 C 325.871094 236.328125 325.871094 235.839844 325.878906 235.355469 C 326.542969 235.25 327.21875 235.253906 327.890625 235.316406 C 327.925781 235.539062 327.964844 235.757812 328.015625 235.980469 C 328.640625 235.984375 329.265625 235.988281 329.894531 235.988281 C 329.917969 235.667969 329.941406 235.34375 329.960938 235.019531 C 330.644531 235.019531 331.332031 235 332.015625 234.992188 C 332.015625 234.992188 332.121094 245.542969 332.0625 250.75 C 332.28125 250.742188 332.503906 250.738281 332.730469 250.734375 C 332.832031 248.664062 332.699219 228.414062 332.753906 227.761719 C 333.480469 227.710938 334.210938 227.71875 334.9375 227.746094 C 334.898438 226.148438 334.882812 216.464844 334.949219 215.199219 C 336.203125 215.109375 337.460938 215.167969 338.71875 215.214844 C 338.75 214.671875 338.726562 214.125 338.730469 213.582031 C 338.707031 213.171875 339.074219 212.871094 339.101562 212.476562 C 339.015625 210.703125 339.042969 208.929688 338.992188 207.152344 C 339.035156 206.664062 338.863281 206.058594 339.28125 205.691406 C 340.996094 203.9375 340.003906 204.972656 340.339844 197.328125 C 340.507812 197.199219 340.679688 197.070312 340.855469 196.941406 C 340.898438 199.457031 340.765625 201.980469 340.871094 204.492188 C 340.792969 205.296875 341.859375 205.582031 341.835938 206.355469 C 341.851562 208.351562 341.871094 210.351562 341.75 212.34375 C 341.683594 212.882812 342.402344 213.066406 342.386719 213.582031 C 342.40625 214.472656 342.332031 215.359375 342.339844 216.25 C 342.613281 216.214844 342.890625 216.183594 343.171875 216.15625 C 343.1875 215.574219 343.132812 214.984375 343.230469 214.40625 C 343.464844 213.90625 344.070312 213.828125 344.523438 213.617188 C 345.230469 213.390625 345.660156 212.691406 347.738281 213.078125 C 349.3125 213.640625 347.902344 212.582031 348.398438 243.464844 C 350.066406 243.453125 351.734375 243.429688 353.398438 243.511719 C 353.453125 245.59375 353.351562 247.675781 353.414062 249.757812 C 353.578125 249.785156 353.742188 249.8125 353.910156 249.835938 C 353.875 248.773438 353.882812 247.710938 353.882812 246.648438 C 353.996094 246.648438 354.230469 246.65625 354.34375 246.65625 C 354.351562 247.792969 354.3125 248.925781 354.355469 250.058594 C 356.753906 250.179688 355.472656 250.074219 357.296875 249.644531 C 357.515625 246.210938 356.929688 232.265625 357.679688 231.914062 C 358.359375 231.816406 359.058594 231.859375 359.75 231.8125 C 359.792969 231.636719 359.839844 231.453125 359.890625 231.273438 C 360.414062 231.234375 360.875 230.992188 361.226562 230.597656 C 361.421875 230.804688 361.621094 231.011719 361.828125 231.21875 C 364.796875 231.011719 364.777344 231.457031 366.085938 230.925781 C 366.445312 231.066406 366.816406 231.1875 367.191406 231.296875 C 367.289062 231.484375 367.390625 231.675781 367.519531 231.851562 C 367.910156 231.964844 367.964844 231.476562 368.132812 231.238281 C 368.246094 231.230469 368.363281 231.222656 368.488281 231.214844 C 368.535156 231.398438 368.585938 231.585938 368.644531 231.769531 C 368.929688 231.804688 369.21875 231.839844 369.511719 231.875 C 369.578125 233.0625 369.550781 242.628906 369.527344 244.082031 C 369.734375 244.078125 369.945312 244.078125 370.160156 244.070312 C 370.253906 243.261719 369.898438 242.25 370.582031 241.625 C 371.050781 241.097656 371.867188 240.839844 372.027344 240.082031 C 372.09375 239.246094 372.175781 238.363281 371.855469 237.570312 C 372.019531 237.367188 372.203125 237.175781 372.335938 236.945312 C 372.429688 236.417969 372.304688 235.859375 372.476562 235.347656 C 372.851562 234.949219 373.414062 234.8125 373.875 234.53125 C 374.175781 233.535156 373.6875 232.492188 373.957031 231.484375 C 374.121094 230.785156 373.601562 230.222656 373.375 229.605469 C 373.53125 229.15625 373.734375 228.65625 374.144531 228.382812 C 375.1875 228.359375 374.894531 228.652344 374.898438 253.785156 L 52.800781 253.785156 L 52.800781 225.605469 C 53.039062 225.8125 53.269531 226.050781 53.578125 226.160156 C 53.820312 226.058594 54.046875 225.910156 54.273438 225.777344 C 54.4375 226.003906 54.59375 226.238281 54.769531 226.457031 C 55.273438 226.382812 55.574219 225.894531 55.953125 225.601562 C 56.511719 226.210938 57.222656 226.628906 57.949219 227.011719 C 58.144531 227.46875 58.042969 228.007812 58.105469 228.5 C 58.339844 228.441406 58.601562 228.390625 58.699219 228.140625 C 59.238281 227.128906 59.898438 226.109375 59.890625 224.917969 C 59.953125 224.964844 60.082031 225.058594 60.144531 225.105469 C 60.320312 226.242188 60.828125 227.28125 61.386719 228.277344 C 63.851562 232.757812 62.933594 230.679688 63.160156 232.730469 C 63.363281 232.769531 63.566406 232.8125 63.765625 232.851562 C 63.863281 234.019531 63.816406 240.699219 63.796875 241.832031 C 64.066406 241.875 64.335938 241.914062 64.605469 241.960938 C 64.71875 242.128906 64.761719 242.363281 64.949219 242.480469 C 65.527344 242.527344 66.109375 242.503906 66.691406 242.515625 C 66.703125 242.03125 66.6875 241.542969 66.730469 241.058594 C 66.78125 240.53125 67.035156 240.039062 67.042969 239.507812 C 67.097656 238.511719 66.867188 237.457031 67.328125 236.523438 C 67.460938 236.082031 67.921875 235.917969 68.292969 235.730469 C 68.0625 232.617188 69.617188 231.179688 70.113281 231.285156 C 70.988281 231.394531 71.699219 232.046875 72.140625 232.777344 C 72.472656 233.371094 73.058594 233.738281 73.460938 234.269531 C 73.597656 234.863281 73.550781 235.480469 73.621094 236.085938 C 74.304688 235.996094 74.914062 235.585938 75.617188 235.640625 C 77.273438 235.621094 78.929688 235.675781 80.578125 235.574219 C 80.683594 234.394531 80.359375 233.082031 81 232.015625 C 81.230469 231.894531 81.488281 231.835938 81.738281 231.757812 C 81.832031 229.140625 82.128906 231.339844 82.160156 227.710938 C 82.355469 227.554688 82.550781 227.398438 82.746094 227.246094 C 82.691406 226.316406 83.292969 225.453125 82.984375 224.527344 L 83.382812 224.527344 C 83.085938 225.453125 83.667969 226.320312 83.617188 227.25 C 83.808594 227.40625 84.003906 227.558594 84.199219 227.714844 C 84.199219 228.480469 84.078125 229.277344 84.351562 230.015625 C 84.515625 230.472656 84.519531 230.960938 84.667969 231.421875 C 84.878906 231.855469 85.152344 232.265625 85.292969 232.734375 C 85.617188 233.617188 85.367188 234.570312 85.507812 235.484375 C 85.9375 236.234375 85.761719 235.9375 89.328125 235.929688 C 89.335938 231.640625 89.285156 227.351562 89.347656 223.0625 C 89.644531 223.035156 89.941406 223.007812 90.238281 222.980469 C 90.269531 222.699219 90.300781 222.421875 90.335938 222.144531 C 90.820312 222.015625 91.304688 221.894531 91.800781 221.808594 C 91.859375 221.632812 91.921875 221.457031 91.980469 221.285156 C 92.261719 221.097656 92.683594 220.984375 92.75 220.609375 C 93.253906 218.882812 93.738281 219.9375 94.820312 219.878906 C 95.835938 219.847656 96.882812 220.054688 97.867188 219.710938 C 98.535156 219.5 98.742188 220.351562 98.8125 220.832031 C 99.308594 220.867188 99.8125 220.882812 100.3125 220.886719 C 100.734375 221.414062 100.652344 222.09375 100.640625 222.71875 C 100.957031 222.71875 101.269531 222.71875 101.582031 222.71875 C 101.628906 222.519531 101.671875 222.324219 101.714844 222.128906 C 102.539062 222.175781 103.382812 222.046875 104.195312 222.1875 C 104.636719 222.496094 105.074219 222.832031 105.644531 222.808594 C 105.554688 226.785156 105.546875 242.863281 105.613281 244.734375 C 105.886719 244.773438 106.167969 244.808594 106.445312 244.84375 C 106.53125 244.984375 106.617188 245.128906 106.707031 245.269531 C 107.429688 245.476562 108.152344 245.804688 108.925781 245.65625 C 108.914062 240.042969 108.984375 234.429688 108.917969 228.820312 C 109.4375 228.527344 109.941406 228.207031 110.417969 227.851562 C 110.929688 228.277344 111.53125 228.558594 112.109375 228.890625 C 112.230469 229.101562 112.15625 237.429688 112.15625 237.554688 C 113.019531 237.496094 113.882812 237.527344 114.75 237.535156 C 114.761719 238.066406 114.707031 238.609375 114.808594 239.136719 C 114.984375 239.410156 115.347656 239.601562 115.328125 239.964844 C 115.363281 240.617188 115.332031 241.269531 115.371094 241.921875 C 116.386719 241.964844 117.398438 241.984375 118.410156 241.972656 C 118.382812 238.929688 118.425781 235.886719 118.382812 232.84375 C 118.992188 232.832031 119.605469 232.828125 120.214844 232.832031 C 120.257812 231.992188 120.164062 231.152344 120.207031 230.316406 C 120.4375 230.269531 120.671875 230.222656 120.90625 230.175781 C 120.691406 215.859375 121.113281 224.019531 121.269531 217.191406 C 122.46875 216.71875 123.882812 216.664062 125.054688 217.234375 C 125.207031 218.105469 125.078125 219 125.132812 219.878906 C 125.15625 220.3125 125.410156 220.6875 125.445312 221.117188 C 125.503906 222.011719 125.429688 222.90625 125.464844 223.804688 C 125.484375 224.492188 125.824219 225.125 125.832031 225.820312 C 125.890625 227.304688 125.816406 228.792969 125.855469 230.28125 C 126.09375 230.273438 126.328125 230.265625 126.570312 230.253906 C 126.589844 229.554688 126.601562 228.855469 126.597656 228.15625 C 126.996094 228.132812 127.394531 228.113281 127.792969 228.089844 C 127.820312 227.722656 127.808594 227.34375 127.894531 226.984375 C 128.667969 225.484375 128.398438 229.160156 128.433594 212.449219 C 128.902344 212.296875 129.355469 212.082031 129.832031 211.957031 C 130.175781 211.949219 130.507812 212.09375 130.855469 212.070312 C 131.78125 211.929688 132.707031 212.179688 133.636719 212.074219 C 133.671875 212.402344 133.714844 212.726562 133.769531 213.046875 C 133.917969 212.835938 134.054688 212.617188 134.183594 212.394531 C 134.671875 212.382812 135.15625 212.386719 135.648438 212.378906 C 135.667969 210.714844 135.515625 209.046875 135.667969 207.382812 C 135.972656 207.257812 136.28125 207.136719 136.589844 207.019531 C 136.640625 206.734375 136.691406 206.449219 136.746094 206.167969 C 137.414062 206.027344 138.070312 205.851562 138.730469 205.695312 C 138.894531 202.5 138.707031 199.292969 138.859375 196.09375 Z M 138.859375 196.09375 " fill-opacity="1" fill-rule="nonzero"/></g><g fill="#ff1616" fill-opacity="1"><g transform="translate(82.899813, 189.971568)"><g><path d="M 7.890625 -4.4375 C 3.742188 -8.132812 1.671875 -12.867188 1.671875 -18.640625 C 1.671875 -24.421875 3.832031 -29.164062 8.15625 -32.875 C 12.476562 -36.59375 17.816406 -38.453125 24.171875 -38.453125 C 30.441406 -38.453125 35.722656 -36.582031 40.015625 -32.84375 C 44.316406 -29.101562 46.46875 -24.367188 46.46875 -18.640625 C 46.46875 -12.910156 44.363281 -8.1875 40.15625 -4.46875 C 35.957031 -0.757812 30.628906 1.09375 24.171875 1.09375 C 17.472656 1.09375 12.046875 -0.75 7.890625 -4.4375 Z M 17.875 -24.96875 C 16.195312 -23.320312 15.359375 -21.210938 15.359375 -18.640625 C 15.359375 -16.066406 16.160156 -13.96875 17.765625 -12.34375 C 19.367188 -10.71875 21.484375 -9.90625 24.109375 -9.90625 C 26.628906 -9.90625 28.703125 -10.726562 30.328125 -12.375 C 31.953125 -14.03125 32.765625 -16.117188 32.765625 -18.640625 C 32.765625 -21.210938 31.925781 -23.320312 30.25 -24.96875 C 28.582031 -26.625 26.535156 -27.453125 24.109375 -27.453125 C 21.628906 -27.453125 19.550781 -26.625 17.875 -24.96875 Z M 17.875 -24.96875 "/></g></g></g><g fill="#ff1616" fill-opacity="1"><g transform="translate(131.032029, 189.971568)"><g><path d="M 4.375 0 L 4.375 -37.359375 L 17.265625 -37.359375 L 17.265625 -33.421875 L 17.40625 -33.421875 C 20.757812 -36.773438 24.328125 -38.453125 28.109375 -38.453125 C 29.953125 -38.453125 31.785156 -38.207031 33.609375 -37.71875 C 35.429688 -37.238281 37.175781 -36.488281 38.84375 -35.46875 C 40.519531 -34.445312 41.878906 -33 42.921875 -31.125 C 43.972656 -29.257812 44.5 -27.085938 44.5 -24.609375 L 44.5 0 L 31.609375 0 L 31.609375 -21.125 C 31.609375 -23.0625 30.988281 -24.757812 29.75 -26.21875 C 28.507812 -27.675781 26.894531 -28.40625 24.90625 -28.40625 C 22.96875 -28.40625 21.207031 -27.648438 19.625 -26.140625 C 18.050781 -24.640625 17.265625 -22.96875 17.265625 -21.125 L 17.265625 0 Z M 4.375 0 "/></g></g></g><g fill="#ff1616" fill-opacity="1"><g transform="translate(179.164245, 189.971568)"><g><path d="M 6.21875 -59.5 C 7.457031 -60.613281 8.898438 -61.171875 10.546875 -61.171875 C 12.203125 -61.171875 13.660156 -60.613281 14.921875 -59.5 C 16.191406 -58.382812 16.828125 -57.125 16.828125 -55.71875 L 16.828125 -55.421875 C 16.828125 -54.453125 16.445312 -52.226562 15.6875 -48.75 C 14.9375 -45.28125 14.175781 -42.039062 13.40625 -39.03125 L 12.3125 -34.59375 L 7.421875 -34.59375 C 5.390625 -46.25 4.375 -53.191406 4.375 -55.421875 L 4.375 -55.71875 C 4.375 -57.125 4.988281 -58.382812 6.21875 -59.5 Z M 6.21875 -59.5 "/></g></g></g><g fill="#ff1616" fill-opacity="1"><g transform="translate(200.354067, 189.971568)"><g><path d="M 6.546875 -37.359375 L 6.546875 -51.265625 L 19.4375 -51.265625 L 19.4375 -37.359375 L 27.3125 -37.359375 L 27.3125 -27.53125 L 19.4375 -27.53125 L 19.4375 -15.65625 C 19.4375 -12.207031 20.410156 -10.484375 22.359375 -10.484375 C 22.847656 -10.484375 23.359375 -10.578125 23.890625 -10.765625 C 24.421875 -10.960938 24.832031 -11.160156 25.125 -11.359375 L 25.5625 -11.65625 L 28.765625 -1.234375 C 25.992188 0.316406 22.835938 1.09375 19.296875 1.09375 C 16.867188 1.09375 14.78125 0.671875 13.03125 -0.171875 C 11.289062 -1.023438 9.96875 -2.164062 9.0625 -3.59375 C 8.164062 -5.03125 7.519531 -6.535156 7.125 -8.109375 C 6.738281 -9.691406 6.546875 -11.382812 6.546875 -13.1875 L 6.546875 -27.53125 L 1.171875 -27.53125 L 1.171875 -37.359375 Z M 6.546875 -37.359375 "/></g></g></g><g fill="#ff1616" fill-opacity="1"><g transform="translate(229.116887, 189.971568)"><g><path d="M 4.375 -60.078125 L 23.015625 -60.078125 C 28.648438 -60.078125 33.140625 -58.875 36.484375 -56.46875 C 39.835938 -54.070312 41.515625 -50.179688 41.515625 -44.796875 C 41.515625 -38.773438 39.015625 -34.476562 34.015625 -31.90625 C 42.554688 -30.394531 46.828125 -25.34375 46.828125 -16.75 C 46.828125 -11.695312 45.078125 -7.640625 41.578125 -4.578125 C 38.085938 -1.523438 33.285156 0 27.171875 0 L 4.375 0 Z M 18.0625 -36.5625 L 19.15625 -36.5625 C 22.207031 -36.5625 24.484375 -37.09375 25.984375 -38.15625 C 27.492188 -39.226562 28.25 -40.976562 28.25 -43.40625 C 28.25 -47.476562 25.21875 -49.515625 19.15625 -49.515625 L 18.0625 -49.515625 Z M 18.0625 -10.5625 L 22.359375 -10.5625 C 29.054688 -10.5625 32.40625 -12.796875 32.40625 -17.265625 C 32.40625 -19.929688 31.566406 -21.847656 29.890625 -23.015625 C 28.222656 -24.179688 25.710938 -24.765625 22.359375 -24.765625 L 18.0625 -24.765625 Z M 18.0625 -10.5625 "/></g></g></g><g fill="#ff1616" fill-opacity="1"><g transform="translate(277.613198, 189.971568)"><g><path d="M 4.375 0 L 4.375 -37.359375 L 17.265625 -37.359375 L 17.265625 -33.421875 L 17.40625 -33.421875 C 20.757812 -36.773438 24.328125 -38.453125 28.109375 -38.453125 C 29.953125 -38.453125 31.785156 -38.207031 33.609375 -37.71875 C 35.429688 -37.238281 37.175781 -36.488281 38.84375 -35.46875 C 40.519531 -34.445312 41.878906 -33 42.921875 -31.125 C 43.972656 -29.257812 44.5 -27.085938 44.5 -24.609375 L 44.5 0 L 31.609375 0 L 31.609375 -21.125 C 31.609375 -23.0625 30.988281 -24.757812 29.75 -26.21875 C 28.507812 -27.675781 26.894531 -28.40625 24.90625 -28.40625 C 22.96875 -28.40625 21.207031 -27.648438 19.625 -26.140625 C 18.050781 -24.640625 17.265625 -22.96875 17.265625 -21.125 L 17.265625 0 Z M 4.375 0 "/></g></g></g><g fill="#ff1616" fill-opacity="1"><g transform="translate(325.745428, 189.971568)"><g><path d="M 4.375 -60.078125 L 23.015625 -60.078125 C 28.648438 -60.078125 33.140625 -58.875 36.484375 -56.46875 C 39.835938 -54.070312 41.515625 -50.179688 41.515625 -44.796875 C 41.515625 -38.773438 39.015625 -34.476562 34.015625 -31.90625 C 42.554688 -30.394531 46.828125 -25.34375 46.828125 -16.75 C 46.828125 -11.695312 45.078125 -7.640625 41.578125 -4.578125 C 38.085938 -1.523438 33.285156 0 27.171875 0 L 4.375 0 Z M 18.0625 -36.5625 L 19.15625 -36.5625 C 22.207031 -36.5625 24.484375 -37.09375 25.984375 -38.15625 C 27.492188 -39.226562 28.25 -40.976562 28.25 -43.40625 C 28.25 -47.476562 25.21875 -49.515625 19.15625 -49.515625 L 18.0625 -49.515625 Z M 18.0625 -10.5625 L 22.359375 -10.5625 C 29.054688 -10.5625 32.40625 -12.796875 32.40625 -17.265625 C 32.40625 -19.929688 31.566406 -21.847656 29.890625 -23.015625 C 28.222656 -24.179688 25.710938 -24.765625 22.359375 -24.765625 L 18.0625 -24.765625 Z M 18.0625 -10.5625 "/></g></g></g><g fill="#ff1616" fill-opacity="1"><g transform="translate(-4.611832, 227.909649)"><g><path d="M 6.921875 -95.140625 L 34.484375 -95.140625 C 47.703125 -95.140625 59 -90.617188 68.375 -81.578125 C 77.757812 -72.546875 82.453125 -61.226562 82.453125 -47.625 C 82.453125 -33.9375 77.78125 -22.578125 68.4375 -13.546875 C 59.09375 -4.515625 47.773438 0 34.484375 0 L 6.921875 0 Z M 28.59375 -19.375 L 31.9375 -19.375 C 39.851562 -19.375 46.328125 -22.046875 51.359375 -27.390625 C 56.398438 -32.734375 58.960938 -39.441406 59.046875 -47.515625 C 59.046875 -55.578125 56.523438 -62.300781 51.484375 -67.6875 C 46.453125 -73.070312 39.9375 -75.765625 31.9375 -75.765625 L 28.59375 -75.765625 Z M 28.59375 -19.375 "/></g></g></g></svg>