<svg xmlns="http://www.w3.org/2000/svg" xmlns:xlink="http://www.w3.org/1999/xlink" width="40" zoomAndPan="magnify" viewBox="0 0 30 30.000001" height="40" preserveAspectRatio="xMidYMid meet" version="1.0"><defs><g/><clipPath id="7c6d0c636b"><path d="M 4.566406 15.175781 L 29.246094 15.175781 L 29.246094 19.53125 L 4.566406 19.53125 Z M 4.566406 15.175781 " clip-rule="nonzero"/></clipPath><clipPath id="986cd96294"><path d="M 26 10 L 29.515625 10 L 29.515625 15 L 26 15 Z M 26 10 " clip-rule="nonzero"/></clipPath><clipPath id="73b2b8918f"><path d="M 0.484375 10 L 7 10 L 7 18 L 0.484375 18 Z M 0.484375 10 " clip-rule="nonzero"/></clipPath></defs><g clip-path="url(#7c6d0c636b)"><path fill="#000000" d="M 11.164062 15.179688 C 11.175781 15.179688 11.1875 15.179688 11.199219 15.175781 C 11.199219 15.308594 11.199219 15.445312 11.199219 15.578125 C 11.195312 15.625 11.214844 15.667969 11.214844 15.714844 C 11.199219 15.78125 11.199219 15.847656 11.203125 15.914062 C 11.257812 15.914062 11.308594 15.929688 11.359375 15.941406 C 11.363281 15.96875 11.367188 15.992188 11.371094 16.019531 C 11.394531 16.03125 11.417969 16.042969 11.441406 16.054688 C 11.453125 16.257812 11.410156 18.265625 11.476562 18.460938 C 11.511719 18.554688 11.488281 18.65625 11.492188 18.753906 C 11.507812 18.753906 11.523438 18.753906 11.539062 18.753906 C 11.542969 18.640625 11.574219 18.757812 11.570312 18.308594 C 11.601562 18.304688 11.632812 18.300781 11.667969 18.296875 C 11.667969 18.277344 11.671875 18.253906 11.675781 18.234375 C 11.707031 18.234375 11.738281 18.234375 11.773438 18.234375 C 11.78125 18.273438 11.808594 18.300781 11.847656 18.3125 C 11.851562 18.410156 11.847656 18.507812 11.851562 18.605469 C 11.859375 18.605469 11.878906 18.605469 11.886719 18.605469 C 11.886719 18.339844 11.886719 18.078125 11.886719 17.8125 C 12.019531 17.804688 12.152344 17.808594 12.28125 17.8125 C 12.285156 18.039062 12.261719 18.03125 12.339844 18.078125 C 12.359375 16.679688 12.292969 16.992188 12.4375 16.871094 C 12.445312 16.769531 12.429688 16.664062 12.441406 16.5625 C 12.460938 16.519531 12.488281 16.480469 12.507812 16.4375 C 12.519531 16.460938 12.53125 16.484375 12.546875 16.507812 C 12.617188 16.507812 12.6875 16.507812 12.757812 16.511719 C 12.761719 16.53125 12.761719 16.550781 12.765625 16.570312 C 12.773438 16.570312 12.785156 16.570312 12.796875 16.570312 C 12.800781 16.546875 12.804688 16.527344 12.808594 16.507812 C 12.824219 16.507812 12.839844 16.507812 12.859375 16.503906 C 12.867188 16.636719 12.855469 17.265625 12.863281 17.523438 C 12.894531 17.523438 12.925781 17.523438 12.957031 17.523438 C 12.957031 17.738281 12.949219 17.953125 12.960938 18.167969 C 12.996094 18.167969 13.035156 18.167969 13.074219 18.167969 C 13.074219 18.203125 13.074219 18.242188 13.078125 18.28125 C 13.109375 18.28125 13.144531 18.285156 13.175781 18.285156 C 13.132812 18.152344 13.175781 18.269531 13.152344 17.636719 C 13.171875 17.363281 13.140625 17.089844 13.160156 16.816406 C 13.339844 16.8125 13.523438 16.816406 13.703125 16.8125 C 13.714844 16.980469 13.699219 17.144531 13.703125 17.3125 C 13.753906 17.316406 13.800781 17.300781 13.851562 17.289062 C 14.066406 17.335938 14.015625 17.304688 14.015625 17.542969 C 14.105469 17.542969 14.191406 17.542969 14.277344 17.546875 C 14.277344 17.566406 14.28125 17.582031 14.28125 17.601562 C 14.390625 17.675781 14.332031 17.65625 14.449219 17.664062 C 14.449219 18.144531 14.433594 18.15625 14.476562 18.164062 C 14.488281 17.929688 14.476562 17.691406 14.480469 17.457031 C 14.566406 17.445312 14.644531 17.398438 14.730469 17.390625 C 14.828125 17.410156 14.925781 17.40625 15.027344 17.40625 C 15.03125 17.601562 15.023438 17.800781 15.03125 17.996094 C 15.097656 17.988281 15.03125 17.132812 15.0625 16.890625 C 15.070312 16.886719 15.316406 16.828125 15.34375 16.808594 C 15.355469 16.785156 15.367188 16.761719 15.375 16.738281 C 15.390625 16.753906 15.402344 16.773438 15.417969 16.792969 C 15.566406 16.777344 15.714844 16.789062 15.863281 16.789062 C 15.871094 17.113281 15.859375 17.4375 15.863281 17.761719 C 15.902344 17.761719 15.941406 17.761719 15.980469 17.765625 C 15.984375 17.789062 15.988281 17.808594 15.988281 17.832031 C 16.078125 17.835938 16.167969 17.835938 16.257812 17.832031 C 16.257812 17.753906 16.253906 17.671875 16.261719 17.59375 C 16.316406 17.59375 16.375 17.597656 16.433594 17.59375 C 16.4375 17.53125 16.429688 17.46875 16.445312 17.410156 C 16.464844 17.339844 16.460938 17.269531 16.484375 17.199219 C 16.511719 17.152344 16.507812 17.203125 16.609375 16.953125 C 16.632812 16.898438 16.621094 16.835938 16.636719 16.777344 C 16.644531 16.742188 16.648438 16.710938 16.65625 16.675781 C 16.671875 16.699219 16.683594 16.730469 16.683594 16.761719 C 16.671875 16.945312 16.78125 17.09375 16.824219 17.183594 C 16.867188 17.324219 16.859375 17.289062 16.859375 18.066406 C 16.882812 18.066406 16.910156 18.066406 16.933594 18.066406 C 16.9375 17.832031 16.9375 17.597656 16.9375 17.363281 C 16.933594 17.316406 16.957031 17.269531 16.960938 17.222656 C 16.960938 17.175781 16.957031 17.128906 16.972656 17.085938 C 16.992188 17.019531 16.984375 16.949219 16.988281 16.878906 C 16.988281 16.851562 17.015625 16.832031 17.027344 16.808594 C 17.0625 16.765625 17.046875 16.703125 17.082031 16.664062 C 17.128906 16.609375 17.125 16.53125 17.140625 16.46875 C 17.167969 16.386719 17.152344 16.300781 17.15625 16.21875 C 17.15625 16.222656 17.164062 16.222656 17.164062 16.222656 C 17.15625 16.632812 17.191406 16.519531 17.117188 16.640625 C 17.15625 16.644531 17.195312 16.652344 17.230469 16.65625 C 17.242188 16.695312 17.25 16.738281 17.261719 16.78125 C 17.273438 16.816406 17.3125 16.839844 17.3125 16.878906 C 17.3125 16.917969 17.316406 16.960938 17.328125 16.996094 C 17.4375 16.972656 17.550781 16.976562 17.660156 16.984375 C 17.726562 17.085938 17.816406 17.164062 17.910156 17.234375 C 17.910156 17.242188 17.910156 18.058594 17.910156 18.066406 C 17.957031 18.066406 18.007812 18.058594 18.050781 18.074219 C 18.121094 18.101562 18.195312 18.082031 18.265625 18.089844 C 18.285156 18.066406 18.300781 18.042969 18.324219 18.023438 C 18.351562 18.046875 18.386719 18.070312 18.429688 18.066406 C 18.433594 17.265625 18.386719 17.132812 18.597656 17.089844 C 18.597656 17.0625 18.597656 17.035156 18.597656 17.007812 C 18.621094 16.996094 18.640625 16.980469 18.664062 16.972656 C 18.695312 17 18.671875 17.050781 18.6875 17.085938 C 18.695312 17.105469 18.707031 17.125 18.71875 17.144531 C 18.730469 17.171875 18.734375 17.214844 18.777344 17.21875 C 18.789062 17.203125 18.792969 17.171875 18.820312 17.171875 C 19.011719 17.160156 18.890625 17.1875 19.113281 17.21875 C 19.113281 17.28125 19.113281 17.339844 19.113281 17.402344 C 19.160156 17.40625 19.210938 17.40625 19.257812 17.40625 C 19.261719 17.578125 19.257812 17.75 19.261719 17.921875 C 19.285156 17.929688 19.308594 17.9375 19.332031 17.949219 C 19.339844 18.027344 19.335938 18.109375 19.339844 18.191406 C 19.351562 18.191406 19.367188 18.191406 19.378906 18.191406 C 19.441406 17.929688 19.4375 17.972656 19.722656 17.976562 C 19.738281 17.976562 19.761719 17.972656 19.769531 17.992188 C 19.8125 18.097656 19.863281 18.199219 19.867188 18.3125 C 19.863281 18.355469 19.914062 18.375 19.910156 18.417969 C 19.910156 18.671875 19.90625 18.925781 19.914062 19.179688 C 19.953125 19.179688 19.992188 19.179688 20.035156 19.179688 C 20.035156 19.070312 20.03125 18.957031 20.039062 18.847656 C 20.082031 18.84375 20.128906 18.84375 20.175781 18.84375 C 20.179688 18.804688 20.179688 18.769531 20.183594 18.730469 C 20.238281 18.730469 20.289062 18.730469 20.34375 18.730469 C 20.347656 19.308594 20.328125 19.320312 20.371094 19.324219 C 20.382812 19.144531 20.375 17.960938 20.375 17.960938 C 20.40625 17.90625 20.472656 17.929688 20.523438 17.917969 C 20.644531 17.878906 20.761719 17.902344 20.800781 17.925781 C 20.828125 17.941406 20.84375 17.96875 20.859375 17.996094 C 20.980469 17.988281 21.105469 18 21.226562 18 C 21.246094 18.058594 21.238281 18.390625 21.234375 18.398438 C 21.316406 18.394531 21.394531 18.398438 21.472656 18.394531 C 21.480469 18.355469 21.488281 18.316406 21.496094 18.28125 C 21.535156 18.328125 21.527344 18.398438 21.574219 18.441406 C 21.636719 18.523438 21.613281 18.394531 21.621094 19.132812 C 21.6875 19.140625 21.75 19.101562 21.816406 19.101562 C 21.824219 18.917969 21.808594 18.238281 21.816406 17.945312 C 21.886719 17.941406 21.957031 17.945312 22.027344 17.953125 C 22.050781 17.925781 22.074219 17.894531 22.09375 17.863281 C 22.140625 17.894531 22.191406 17.90625 22.242188 17.902344 C 22.246094 17.917969 22.25 17.933594 22.253906 17.949219 C 22.304688 17.953125 22.359375 17.953125 22.410156 17.957031 C 22.417969 18.027344 22.417969 18.09375 22.414062 18.160156 C 22.5 18.160156 22.574219 18.210938 22.65625 18.214844 C 22.675781 18.238281 22.695312 18.253906 22.722656 18.265625 C 22.734375 18.351562 22.726562 18.4375 22.726562 18.523438 C 22.832031 18.515625 22.9375 18.507812 23.042969 18.515625 C 23.046875 18.355469 23.039062 17.609375 23.042969 17.238281 C 23.117188 17.234375 23.1875 17.234375 23.257812 17.234375 C 23.257812 17.164062 23.265625 17.09375 23.265625 17.023438 C 23.339844 17.019531 23.417969 17.023438 23.496094 17.019531 C 23.523438 16.925781 23.492188 16.941406 23.613281 16.925781 C 23.617188 16.734375 23.609375 16.542969 23.628906 16.355469 C 23.65625 16.410156 23.648438 16.734375 23.648438 16.921875 C 23.691406 16.929688 23.726562 16.953125 23.757812 16.980469 C 23.785156 17.007812 23.832031 17.011719 23.855469 17.039062 C 23.863281 17.117188 23.859375 18.15625 23.859375 19.277344 C 23.90625 19.28125 23.957031 19.28125 24.003906 19.28125 C 24.007812 19.160156 24 18.355469 24.011719 18.238281 C 24.050781 18.234375 24.09375 18.234375 24.132812 18.230469 C 24.136719 18.160156 24.121094 18.085938 24.152344 18.019531 C 24.21875 18.019531 24.289062 18.019531 24.359375 18.023438 C 24.367188 18.089844 24.367188 18.15625 24.363281 18.222656 C 24.449219 18.28125 24.429688 18.1875 24.429688 18.632812 C 24.503906 18.632812 24.578125 18.628906 24.648438 18.636719 C 24.660156 18.71875 24.652344 18.804688 24.652344 18.890625 C 24.691406 18.902344 24.734375 18.90625 24.773438 18.917969 C 24.773438 18.972656 24.769531 19.027344 24.773438 19.082031 C 24.820312 19.082031 24.871094 19.082031 24.921875 19.082031 C 24.917969 19.007812 24.914062 18.21875 24.925781 18.140625 C 25.003906 18.144531 25.082031 18.136719 25.15625 18.148438 C 25.21875 18.164062 25.28125 18.183594 25.347656 18.1875 C 25.347656 18.210938 25.347656 18.230469 25.351562 18.253906 C 25.386719 18.253906 25.421875 18.253906 25.457031 18.253906 C 25.457031 18.214844 25.457031 18.179688 25.457031 18.140625 C 25.507812 18.132812 25.558594 18.132812 25.609375 18.140625 C 25.613281 18.15625 25.617188 18.171875 25.617188 18.1875 C 25.667969 18.191406 25.714844 18.191406 25.761719 18.191406 C 25.765625 18.164062 25.765625 18.140625 25.769531 18.117188 C 25.820312 18.117188 25.871094 18.113281 25.925781 18.113281 C 25.925781 18.113281 25.933594 18.910156 25.929688 19.304688 C 25.945312 19.300781 25.960938 19.300781 25.980469 19.300781 C 25.988281 19.144531 25.976562 17.617188 25.980469 17.570312 C 26.035156 17.566406 26.09375 17.566406 26.148438 17.566406 C 26.144531 17.449219 26.144531 16.71875 26.148438 16.621094 C 26.246094 16.617188 26.339844 16.621094 26.4375 16.625 C 26.4375 16.582031 26.4375 16.542969 26.4375 16.5 C 26.4375 16.46875 26.464844 16.445312 26.464844 16.417969 C 26.460938 16.28125 26.460938 16.148438 26.457031 16.015625 C 26.460938 15.980469 26.449219 15.933594 26.480469 15.90625 C 26.609375 15.773438 26.535156 15.851562 26.5625 15.273438 C 26.574219 15.265625 26.585938 15.253906 26.601562 15.246094 C 26.605469 15.433594 26.59375 15.625 26.601562 15.816406 C 26.59375 15.875 26.675781 15.898438 26.675781 15.957031 C 26.675781 16.105469 26.679688 16.257812 26.667969 16.40625 C 26.664062 16.449219 26.71875 16.460938 26.71875 16.5 C 26.71875 16.566406 26.714844 16.632812 26.714844 16.699219 C 26.734375 16.699219 26.757812 16.695312 26.777344 16.695312 C 26.777344 16.648438 26.773438 16.605469 26.78125 16.5625 C 26.800781 16.523438 26.847656 16.519531 26.878906 16.503906 C 26.933594 16.484375 26.96875 16.433594 27.125 16.460938 C 27.246094 16.503906 27.140625 16.425781 27.175781 18.753906 C 27.304688 18.753906 27.429688 18.75 27.558594 18.757812 C 27.5625 18.914062 27.554688 19.070312 27.558594 19.226562 C 27.574219 19.230469 27.585938 19.230469 27.597656 19.234375 C 27.59375 19.152344 27.59375 19.074219 27.59375 18.992188 C 27.605469 18.992188 27.621094 18.992188 27.632812 18.996094 C 27.632812 19.078125 27.628906 19.164062 27.632812 19.25 C 27.816406 19.261719 27.71875 19.253906 27.855469 19.21875 C 27.875 18.960938 27.828125 17.910156 27.886719 17.882812 C 27.9375 17.875 27.992188 17.878906 28.042969 17.875 C 28.046875 17.863281 28.050781 17.847656 28.054688 17.835938 C 28.09375 17.832031 28.128906 17.8125 28.15625 17.785156 C 28.171875 17.800781 28.1875 17.816406 28.203125 17.828125 C 28.429688 17.816406 28.429688 17.847656 28.527344 17.808594 C 28.554688 17.820312 28.585938 17.828125 28.613281 17.835938 C 28.621094 17.851562 28.628906 17.863281 28.636719 17.878906 C 28.667969 17.886719 28.671875 17.847656 28.683594 17.832031 C 28.695312 17.832031 28.703125 17.832031 28.710938 17.828125 C 28.714844 17.84375 28.71875 17.859375 28.722656 17.871094 C 28.746094 17.875 28.769531 17.875 28.789062 17.878906 C 28.796875 17.96875 28.792969 18.691406 28.792969 18.800781 C 28.808594 18.800781 28.824219 18.800781 28.839844 18.800781 C 28.847656 18.738281 28.820312 18.660156 28.871094 18.613281 C 28.90625 18.574219 28.96875 18.554688 28.984375 18.5 C 28.988281 18.433594 28.992188 18.367188 28.96875 18.308594 C 28.980469 18.292969 28.996094 18.277344 29.007812 18.261719 C 29.011719 18.222656 29.003906 18.179688 29.015625 18.140625 C 29.046875 18.113281 29.089844 18.101562 29.125 18.078125 C 29.148438 18.003906 29.109375 17.925781 29.128906 17.851562 C 29.140625 17.796875 29.101562 17.753906 29.085938 17.707031 C 29.097656 17.675781 29.113281 17.636719 29.144531 17.617188 C 29.222656 17.613281 29.203125 17.636719 29.203125 19.53125 L 4.589844 19.53125 L 4.589844 17.40625 C 4.605469 17.421875 4.625 17.441406 4.648438 17.449219 C 4.667969 17.441406 4.683594 17.429688 4.699219 17.417969 C 4.714844 17.4375 4.726562 17.453125 4.738281 17.472656 C 4.777344 17.464844 4.800781 17.429688 4.828125 17.40625 C 4.871094 17.453125 4.925781 17.484375 4.980469 17.511719 C 4.996094 17.546875 4.988281 17.585938 4.992188 17.625 C 5.011719 17.621094 5.03125 17.617188 5.039062 17.597656 C 5.082031 17.523438 5.128906 17.445312 5.128906 17.355469 C 5.132812 17.359375 5.144531 17.367188 5.148438 17.367188 C 5.164062 17.453125 5.203125 17.53125 5.242188 17.609375 C 5.433594 17.945312 5.363281 17.789062 5.378906 17.945312 C 5.394531 17.945312 5.410156 17.949219 5.425781 17.953125 C 5.433594 18.042969 5.429688 18.546875 5.429688 18.628906 C 5.449219 18.632812 5.46875 18.636719 5.488281 18.640625 C 5.5 18.652344 5.503906 18.671875 5.515625 18.679688 C 5.5625 18.683594 5.605469 18.679688 5.648438 18.683594 C 5.652344 18.644531 5.648438 18.609375 5.652344 18.570312 C 5.65625 18.53125 5.675781 18.496094 5.675781 18.453125 C 5.679688 18.378906 5.664062 18.300781 5.699219 18.230469 C 5.707031 18.195312 5.742188 18.183594 5.773438 18.171875 C 5.753906 17.933594 5.875 17.828125 5.910156 17.835938 C 5.976562 17.84375 6.03125 17.890625 6.066406 17.949219 C 6.089844 17.992188 6.136719 18.019531 6.167969 18.058594 C 6.175781 18.105469 6.175781 18.152344 6.179688 18.195312 C 6.230469 18.191406 6.277344 18.160156 6.332031 18.164062 C 6.457031 18.160156 6.585938 18.167969 6.710938 18.160156 C 6.71875 18.070312 6.695312 17.96875 6.742188 17.890625 C 6.761719 17.882812 6.78125 17.875 6.800781 17.871094 C 6.808594 17.671875 6.828125 17.839844 6.832031 17.566406 C 6.847656 17.554688 6.863281 17.542969 6.875 17.53125 C 6.871094 17.460938 6.917969 17.394531 6.894531 17.324219 L 6.925781 17.324219 C 6.902344 17.394531 6.945312 17.460938 6.941406 17.53125 C 6.957031 17.542969 6.972656 17.554688 6.988281 17.566406 C 6.988281 17.625 6.976562 17.683594 7 17.738281 C 7.011719 17.773438 7.011719 17.8125 7.023438 17.84375 C 7.039062 17.878906 7.058594 17.910156 7.070312 17.945312 C 7.097656 18.011719 7.078125 18.082031 7.085938 18.152344 C 7.121094 18.207031 7.105469 18.1875 7.378906 18.183594 C 7.378906 17.863281 7.375 17.539062 7.382812 17.214844 C 7.402344 17.214844 7.425781 17.210938 7.449219 17.207031 C 7.453125 17.1875 7.453125 17.167969 7.457031 17.144531 C 7.492188 17.136719 7.53125 17.125 7.566406 17.121094 C 7.574219 17.105469 7.578125 17.09375 7.582031 17.082031 C 7.605469 17.066406 7.636719 17.058594 7.640625 17.03125 C 7.679688 16.898438 7.714844 16.980469 7.800781 16.976562 C 7.875 16.972656 7.957031 16.988281 8.03125 16.960938 C 8.082031 16.945312 8.097656 17.011719 8.105469 17.046875 C 8.140625 17.050781 8.179688 17.050781 8.21875 17.050781 C 8.25 17.089844 8.246094 17.140625 8.242188 17.1875 C 8.269531 17.1875 8.292969 17.1875 8.316406 17.1875 C 8.320312 17.175781 8.324219 17.160156 8.324219 17.144531 C 8.390625 17.148438 8.453125 17.136719 8.515625 17.148438 C 8.550781 17.171875 8.582031 17.199219 8.625 17.195312 C 8.621094 17.496094 8.617188 18.707031 8.625 18.847656 C 8.644531 18.851562 8.667969 18.855469 8.6875 18.859375 C 8.695312 18.867188 8.699219 18.878906 8.707031 18.890625 C 8.761719 18.90625 8.816406 18.929688 8.878906 18.917969 C 8.875 18.496094 8.882812 18.074219 8.875 17.648438 C 8.917969 17.628906 8.953125 17.601562 8.992188 17.574219 C 9.03125 17.609375 9.078125 17.628906 9.121094 17.65625 C 9.128906 17.671875 9.125 18.296875 9.125 18.308594 C 9.191406 18.304688 9.257812 18.304688 9.320312 18.304688 C 9.324219 18.347656 9.320312 18.386719 9.328125 18.425781 C 9.339844 18.449219 9.367188 18.460938 9.367188 18.488281 C 9.367188 18.539062 9.367188 18.589844 9.371094 18.636719 C 9.445312 18.640625 9.523438 18.640625 9.601562 18.640625 C 9.601562 18.410156 9.601562 18.183594 9.601562 17.953125 C 9.644531 17.953125 9.691406 17.953125 9.738281 17.953125 C 9.742188 17.886719 9.734375 17.824219 9.738281 17.761719 C 9.757812 17.757812 9.773438 17.753906 9.792969 17.75 C 9.777344 16.671875 9.808594 17.289062 9.820312 16.773438 C 9.910156 16.738281 10.019531 16.734375 10.109375 16.777344 C 10.121094 16.839844 10.113281 16.910156 10.117188 16.976562 C 10.117188 17.007812 10.136719 17.035156 10.140625 17.070312 C 10.144531 17.136719 10.136719 17.203125 10.140625 17.269531 C 10.140625 17.324219 10.167969 17.371094 10.167969 17.421875 C 10.171875 17.535156 10.167969 17.648438 10.171875 17.757812 C 10.1875 17.757812 10.207031 17.757812 10.226562 17.757812 C 10.226562 17.703125 10.226562 17.652344 10.226562 17.597656 C 10.257812 17.597656 10.289062 17.597656 10.320312 17.59375 C 10.320312 17.566406 10.320312 17.539062 10.328125 17.511719 C 10.386719 17.398438 10.363281 17.675781 10.367188 16.414062 C 10.402344 16.402344 10.4375 16.386719 10.476562 16.378906 C 10.5 16.375 10.527344 16.386719 10.550781 16.386719 C 10.625 16.375 10.695312 16.394531 10.765625 16.386719 C 10.769531 16.410156 10.769531 16.433594 10.773438 16.460938 C 10.785156 16.445312 10.796875 16.425781 10.808594 16.410156 C 10.84375 16.410156 10.882812 16.410156 10.917969 16.410156 C 10.921875 16.285156 10.910156 16.15625 10.921875 16.03125 C 10.945312 16.023438 10.96875 16.015625 10.992188 16.003906 C 10.996094 15.984375 11 15.960938 11.003906 15.941406 C 11.054688 15.929688 11.105469 15.917969 11.15625 15.90625 C 11.167969 15.664062 11.152344 15.421875 11.164062 15.179688 Z M 11.164062 15.179688 " fill-opacity="1" fill-rule="nonzero"/></g><g fill="#ff1616" fill-opacity="1"><g transform="translate(6.901921, 14.707479)"><g><path d="M 0.609375 -0.34375 C 0.285156 -0.625 0.125 -0.988281 0.125 -1.4375 C 0.125 -1.882812 0.289062 -2.253906 0.625 -2.546875 C 0.96875 -2.835938 1.382812 -2.984375 1.875 -2.984375 C 2.351562 -2.984375 2.757812 -2.835938 3.09375 -2.546875 C 3.425781 -2.253906 3.59375 -1.882812 3.59375 -1.4375 C 3.59375 -1 3.429688 -0.632812 3.109375 -0.34375 C 2.785156 -0.0625 2.375 0.078125 1.875 0.078125 C 1.351562 0.078125 0.929688 -0.0625 0.609375 -0.34375 Z M 1.375 -1.9375 C 1.25 -1.8125 1.1875 -1.644531 1.1875 -1.4375 C 1.1875 -1.238281 1.25 -1.078125 1.375 -0.953125 C 1.5 -0.828125 1.660156 -0.765625 1.859375 -0.765625 C 2.054688 -0.765625 2.21875 -0.828125 2.34375 -0.953125 C 2.46875 -1.085938 2.53125 -1.25 2.53125 -1.4375 C 2.53125 -1.644531 2.46875 -1.8125 2.34375 -1.9375 C 2.21875 -2.0625 2.054688 -2.125 1.859375 -2.125 C 1.671875 -2.125 1.507812 -2.0625 1.375 -1.9375 Z M 1.375 -1.9375 "/></g></g></g><g fill="#ff1616" fill-opacity="1"><g transform="translate(10.628287, 14.707479)"><g><path d="M 0.34375 0 L 0.34375 -2.890625 L 1.34375 -2.890625 L 1.34375 -2.59375 C 1.601562 -2.851562 1.878906 -2.984375 2.171875 -2.984375 C 2.316406 -2.984375 2.457031 -2.960938 2.59375 -2.921875 C 2.738281 -2.878906 2.875 -2.816406 3 -2.734375 C 3.132812 -2.660156 3.242188 -2.550781 3.328125 -2.40625 C 3.410156 -2.257812 3.453125 -2.09375 3.453125 -1.90625 L 3.453125 0 L 2.453125 0 L 2.453125 -1.640625 C 2.453125 -1.785156 2.398438 -1.914062 2.296875 -2.03125 C 2.203125 -2.144531 2.078125 -2.203125 1.921875 -2.203125 C 1.773438 -2.203125 1.640625 -2.140625 1.515625 -2.015625 C 1.398438 -1.898438 1.34375 -1.773438 1.34375 -1.640625 L 1.34375 0 Z M 0.34375 0 "/></g></g></g><g fill="#ff1616" fill-opacity="1"><g transform="translate(14.354652, 14.707479)"><g><path d="M 0.484375 -4.609375 C 0.578125 -4.691406 0.6875 -4.734375 0.8125 -4.734375 C 0.945312 -4.734375 1.0625 -4.691406 1.15625 -4.609375 C 1.25 -4.523438 1.296875 -4.425781 1.296875 -4.3125 L 1.296875 -4.296875 C 1.296875 -4.210938 1.265625 -4.035156 1.203125 -3.765625 C 1.148438 -3.503906 1.09375 -3.253906 1.03125 -3.015625 L 0.953125 -2.671875 L 0.578125 -2.671875 C 0.421875 -3.578125 0.34375 -4.117188 0.34375 -4.296875 L 0.34375 -4.3125 C 0.34375 -4.425781 0.390625 -4.523438 0.484375 -4.609375 Z M 0.484375 -4.609375 "/></g></g></g><g fill="#ff1616" fill-opacity="1"><g transform="translate(15.995154, 14.707479)"><g><path d="M 0.5 -2.890625 L 0.5 -3.96875 L 1.5 -3.96875 L 1.5 -2.890625 L 2.109375 -2.890625 L 2.109375 -2.125 L 1.5 -2.125 L 1.5 -1.21875 C 1.5 -0.945312 1.578125 -0.8125 1.734375 -0.8125 C 1.765625 -0.8125 1.800781 -0.816406 1.84375 -0.828125 C 1.882812 -0.847656 1.921875 -0.863281 1.953125 -0.875 L 1.984375 -0.90625 L 2.234375 -0.09375 C 2.015625 0.0195312 1.769531 0.078125 1.5 0.078125 C 1.3125 0.078125 1.148438 0.046875 1.015625 -0.015625 C 0.878906 -0.078125 0.773438 -0.164062 0.703125 -0.28125 C 0.628906 -0.394531 0.578125 -0.507812 0.546875 -0.625 C 0.515625 -0.75 0.5 -0.878906 0.5 -1.015625 L 0.5 -2.125 L 0.09375 -2.125 L 0.09375 -2.890625 Z M 0.5 -2.890625 "/></g></g></g><g fill="#ff1616" fill-opacity="1"><g transform="translate(18.221953, 14.707479)"><g><path d="M 0.34375 -4.65625 L 1.78125 -4.65625 C 2.21875 -4.65625 2.566406 -4.5625 2.828125 -4.375 C 3.085938 -4.1875 3.21875 -3.882812 3.21875 -3.46875 C 3.21875 -3 3.023438 -2.664062 2.640625 -2.46875 C 3.296875 -2.351562 3.625 -1.960938 3.625 -1.296875 C 3.625 -0.898438 3.488281 -0.582031 3.21875 -0.34375 C 2.945312 -0.113281 2.578125 0 2.109375 0 L 0.34375 0 Z M 1.40625 -2.828125 L 1.484375 -2.828125 C 1.722656 -2.828125 1.898438 -2.867188 2.015625 -2.953125 C 2.128906 -3.035156 2.1875 -3.171875 2.1875 -3.359375 C 2.1875 -3.671875 1.953125 -3.828125 1.484375 -3.828125 L 1.40625 -3.828125 Z M 1.40625 -0.8125 L 1.734375 -0.8125 C 2.253906 -0.8125 2.515625 -0.988281 2.515625 -1.34375 C 2.515625 -1.539062 2.445312 -1.6875 2.3125 -1.78125 C 2.1875 -1.875 1.992188 -1.921875 1.734375 -1.921875 L 1.40625 -1.921875 Z M 1.40625 -0.8125 "/></g></g></g><g fill="#ff1616" fill-opacity="1"><g transform="translate(21.976507, 14.707479)"><g><path d="M 0.34375 0 L 0.34375 -2.890625 L 1.34375 -2.890625 L 1.34375 -2.59375 C 1.601562 -2.851562 1.878906 -2.984375 2.171875 -2.984375 C 2.316406 -2.984375 2.457031 -2.960938 2.59375 -2.921875 C 2.738281 -2.878906 2.875 -2.816406 3 -2.734375 C 3.132812 -2.660156 3.242188 -2.550781 3.328125 -2.40625 C 3.410156 -2.257812 3.453125 -2.09375 3.453125 -1.90625 L 3.453125 0 L 2.453125 0 L 2.453125 -1.640625 C 2.453125 -1.785156 2.398438 -1.914062 2.296875 -2.03125 C 2.203125 -2.144531 2.078125 -2.203125 1.921875 -2.203125 C 1.773438 -2.203125 1.640625 -2.140625 1.515625 -2.015625 C 1.398438 -1.898438 1.34375 -1.773438 1.34375 -1.640625 L 1.34375 0 Z M 0.34375 0 "/></g></g></g><g clip-path="url(#986cd96294)"><g fill="#ff1616" fill-opacity="1"><g transform="translate(25.702873, 14.707479)"><g><path d="M 0.34375 -4.65625 L 1.78125 -4.65625 C 2.21875 -4.65625 2.566406 -4.5625 2.828125 -4.375 C 3.085938 -4.1875 3.21875 -3.882812 3.21875 -3.46875 C 3.21875 -3 3.023438 -2.664062 2.640625 -2.46875 C 3.296875 -2.351562 3.625 -1.960938 3.625 -1.296875 C 3.625 -0.898438 3.488281 -0.582031 3.21875 -0.34375 C 2.945312 -0.113281 2.578125 0 2.109375 0 L 0.34375 0 Z M 1.40625 -2.828125 L 1.484375 -2.828125 C 1.722656 -2.828125 1.898438 -2.867188 2.015625 -2.953125 C 2.128906 -3.035156 2.1875 -3.171875 2.1875 -3.359375 C 2.1875 -3.671875 1.953125 -3.828125 1.484375 -3.828125 L 1.40625 -3.828125 Z M 1.40625 -0.8125 L 1.734375 -0.8125 C 2.253906 -0.8125 2.515625 -0.988281 2.515625 -1.34375 C 2.515625 -1.539062 2.445312 -1.6875 2.3125 -1.78125 C 2.1875 -1.875 1.992188 -1.921875 1.734375 -1.921875 L 1.40625 -1.921875 Z M 1.40625 -0.8125 "/></g></g></g></g><g clip-path="url(#73b2b8918f)"><g fill="#ff1616" fill-opacity="1"><g transform="translate(0.126825, 17.644622)"><g><path d="M 0.53125 -7.359375 L 2.671875 -7.359375 C 3.691406 -7.359375 4.5625 -7.007812 5.28125 -6.3125 C 6.007812 -5.613281 6.375 -4.738281 6.375 -3.6875 C 6.375 -2.625 6.015625 -1.742188 5.296875 -1.046875 C 4.578125 -0.347656 3.703125 0 2.671875 0 L 0.53125 0 Z M 2.21875 -1.5 L 2.46875 -1.5 C 3.082031 -1.5 3.582031 -1.703125 3.96875 -2.109375 C 4.363281 -2.523438 4.5625 -3.046875 4.5625 -3.671875 C 4.5625 -4.296875 4.367188 -4.816406 3.984375 -5.234375 C 3.597656 -5.648438 3.09375 -5.859375 2.46875 -5.859375 L 2.21875 -5.859375 Z M 2.21875 -1.5 "/></g></g></g></g></svg>